<?xml version="1.0" encoding="UTF-8" standalone="no"?>
<svg width="43px" height="43px" viewBox="0 0 43 43" version="1.1" xmlns="http://www.w3.org/2000/svg" xmlns:xlink="http://www.w3.org/1999/xlink">
    <!-- Generator: Sketch 40.1 (33804) - http://www.bohemiancoding.com/sketch -->
    <title>Group 314</title>
    <desc>Created with Sketch.</desc>
    <defs></defs>
    <g id="Page-1" stroke="none" stroke-width="1" fill="none" fill-rule="evenodd" opacity="0.906599813">
        <g id="subtitles-with-chrome" transform="translate(-299.000000, -269.000000)" fill="#FFFFFF">
            <g id="Youtube-controls" transform="translate(0.000000, -11.000000)">
                <g id="Progress-bar">
                    <g id="Group-314" transform="translate(299.000000, 280.000000)">
                        <path d="M25.65,40.6125 L25.65,2.1375 C25.65,0.9576 26.6076,0 27.7875,0 L40.6125,0 C41.7924,0 42.75,0.9576 42.75,2.1375 L42.75,40.6125 C42.75,41.7924 41.7924,42.75 40.6125,42.75 L27.7875,42.75 C26.6076,42.75 25.65,41.7924 25.65,40.6125 L25.65,40.6125 Z M0,2.1375 C0,0.9576 0.9576,0 2.1375,0 L14.9625,0 C16.1424,0 17.1,0.9576 17.1,2.1375 L17.1,40.6125 C17.1,41.7924 16.1424,42.75 14.9625,42.75 L2.1375,42.75 C0.9576,42.75 0,41.7924 0,40.6125 L0,2.1375 Z" id="Fill-268"></path>
                    </g>
                </g>
            </g>
        </g>
    </g>
</svg>