<?xml version="1.0" encoding="UTF-8" standalone="no"?>
<svg width="48px" height="33px" viewBox="0 0 48 33" version="1.1" xmlns="http://www.w3.org/2000/svg" xmlns:xlink="http://www.w3.org/1999/xlink">
    <!-- Generator: Sketch 40.1 (33804) - http://www.bohemiancoding.com/sketch -->
    <title>Next</title>
    <desc>Created with Sketch.</desc>
    <defs>
        <path d="M40.7988635,20.0322873 L20.7533377,30.990439 L20.7008456,19.9889614 L0.576065124,30.9904388 L0.432341217,0.86825338 L20.6726521,14.0800544 L20.6096138,0.868253642 L40.7988635,14.0467246 L40.7988635,2.99018744 C40.7988635,1.89103741 41.7006865,1.00000026 42.7925116,1.00000026 L43.8495335,1.00000026 C44.950595,1.00000026 45.8431816,1.89719608 45.8431816,2.99018744 L45.8431816,28.988275 C45.8431816,30.087425 44.9413586,30.9784622 43.8495335,30.9784622 L42.7925116,30.9784622 C41.6914501,30.9784622 40.7988635,30.0812664 40.7988635,28.988275 L40.7988635,20.0322873 Z" id="path-1"></path>
        <filter x="-50%" y="-50%" width="200%" height="200%" filterUnits="objectBoundingBox" id="filter-2">
            <feMorphology radius="0.5" operator="dilate" in="SourceAlpha" result="shadowSpreadOuter1"></feMorphology>
            <feOffset dx="0" dy="0" in="shadowSpreadOuter1" result="shadowOffsetOuter1"></feOffset>
            <feColorMatrix values="0 0 0 0 0   0 0 0 0 0   0 0 0 0 0  0 0 0 0.1 0" type="matrix" in="shadowOffsetOuter1"></feColorMatrix>
        </filter>
    </defs>
    <g id="Page-1" stroke="none" stroke-width="1" fill="none" fill-rule="evenodd" opacity="0.9">
        <g id="subtitles-with-chrome" transform="translate(-114.000000, -272.000000)">
            <g id="Youtube-controls" transform="translate(0.000000, -11.000000)">
                <g id="Next" transform="translate(138.000000, 299.500000) scale(-1, 1) translate(-138.000000, -299.500000) translate(115.000000, 284.000000)">
                    <g id="Rectangle-2-Copy">
                        <use fill="black" fill-opacity="1" filter="url(#filter-2)" xlink:href="#path-1"></use>
                        <use fill="#FFFFFF" fill-rule="evenodd" xlink:href="#path-1"></use>
                    </g>
                </g>
            </g>
        </g>
    </g>
</svg>